<?xml version="1.0" encoding="us-ascii" standalone="no"?><svg xmlns="http://www.w3.org/2000/svg" xmlns:xlink="http://www.w3.org/1999/xlink" contentStyleType="text/css" height="595px" preserveAspectRatio="none" style="width:483px;height:595px;background:#FFFFFF;" version="1.1" viewBox="0 0 483 595" width="483px" zoomAndPan="magnify"><defs/><g><!--class Farmer--><g id="elem_Farmer"><rect codeLine="3" fill="#F1F1F1" height="136.0469" id="Farmer" rx="2.5" ry="2.5" style="stroke:#181818;stroke-width:0.5;" width="105" x="169" y="7"/><ellipse cx="196.15" cy="23" fill="#ADD1B2" rx="11" ry="11" style="stroke:#181818;stroke-width:1.0;"/><path d="M198.9156,18.875 Q199.0719,18.6563 199.2594,18.5469 Q199.4469,18.4375 199.6656,18.4375 Q200.0406,18.4375 200.275,18.7031 Q200.5094,18.9531 200.5094,19.5625 L200.5094,21.0156 Q200.5094,21.625 200.275,21.8906 Q200.0406,22.1563 199.6656,22.1563 Q199.3219,22.1563 199.1188,21.9531 Q198.9156,21.7656 198.8063,21.25 Q198.7594,20.8906 198.5719,20.7031 Q198.2438,20.3281 197.6344,20.1094 Q197.025,19.8906 196.4,19.8906 Q195.6344,19.8906 194.9938,20.2188 Q194.3688,20.5469 193.8688,21.2969 Q193.3844,22.0469 193.3844,23.0781 L193.3844,24.1719 Q193.3844,25.4063 194.275,26.2344 Q195.1656,27.0469 196.7594,27.0469 Q197.6969,27.0469 198.3531,26.7969 Q198.7438,26.6406 199.1656,26.2031 Q199.4313,25.9375 199.5719,25.8594 Q199.7281,25.7813 199.9313,25.7813 Q200.2594,25.7813 200.5094,26.0469 Q200.775,26.2969 200.775,26.6406 Q200.775,26.9844 200.4313,27.3906 Q199.9313,27.9688 199.1344,28.2969 Q198.0563,28.75 196.7594,28.75 Q195.2438,28.75 194.0406,28.125 Q193.0563,27.625 192.3688,26.5625 Q191.6813,25.4844 191.6813,24.2031 L191.6813,23.0469 Q191.6813,21.7188 192.2906,20.5781 Q192.9156,19.4219 194.0094,18.8125 Q195.1031,18.1875 196.3375,18.1875 Q197.0719,18.1875 197.7125,18.3594 Q198.3688,18.5156 198.9156,18.875 Z " fill="#000000"/><text fill="#000000" font-family="sans-serif" font-size="14" lengthAdjust="spacing" textLength="46" x="212.85" y="28.7285">Farmer</text><line style="stroke:#181818;stroke-width:0.5;" x1="170" x2="273" y1="39" y2="39"/><text fill="#000000" font-family="sans-serif" font-size="14" lengthAdjust="spacing" textLength="42" x="175" y="57.5332">+id: int</text><text fill="#000000" font-family="sans-serif" font-size="14" lengthAdjust="spacing" textLength="86" x="175" y="75.1426">+name: string</text><text fill="#000000" font-family="sans-serif" font-size="14" lengthAdjust="spacing" textLength="91" x="175" y="92.752">+phone: string</text><text fill="#000000" font-family="sans-serif" font-size="14" lengthAdjust="spacing" textLength="84" x="175" y="110.3613">+email: string</text><text fill="#000000" font-family="sans-serif" font-size="14" lengthAdjust="spacing" textLength="93" x="175" y="127.9707">+county: string</text><line style="stroke:#181818;stroke-width:0.5;" x1="170" x2="273" y1="135.0469" y2="135.0469"/></g><!--class Farm--><g id="elem_Farm"><rect codeLine="11" fill="#F1F1F1" height="136.0469" id="Farm" rx="2.5" ry="2.5" style="stroke:#181818;stroke-width:0.5;" width="127" x="158" y="221"/><ellipse cx="200.9" cy="237" fill="#ADD1B2" rx="11" ry="11" style="stroke:#181818;stroke-width:1.0;"/><path d="M203.6656,232.875 Q203.8219,232.6563 204.0094,232.5469 Q204.1969,232.4375 204.4156,232.4375 Q204.7906,232.4375 205.025,232.7031 Q205.2594,232.9531 205.2594,233.5625 L205.2594,235.0156 Q205.2594,235.625 205.025,235.8906 Q204.7906,236.1563 204.4156,236.1563 Q204.0719,236.1563 203.8688,235.9531 Q203.6656,235.7656 203.5563,235.25 Q203.5094,234.8906 203.3219,234.7031 Q202.9938,234.3281 202.3844,234.1094 Q201.775,233.8906 201.15,233.8906 Q200.3844,233.8906 199.7438,234.2188 Q199.1188,234.5469 198.6188,235.2969 Q198.1344,236.0469 198.1344,237.0781 L198.1344,238.1719 Q198.1344,239.4063 199.025,240.2344 Q199.9156,241.0469 201.5094,241.0469 Q202.4469,241.0469 203.1031,240.7969 Q203.4938,240.6406 203.9156,240.2031 Q204.1813,239.9375 204.3219,239.8594 Q204.4781,239.7813 204.6813,239.7813 Q205.0094,239.7813 205.2594,240.0469 Q205.525,240.2969 205.525,240.6406 Q205.525,240.9844 205.1813,241.3906 Q204.6813,241.9688 203.8844,242.2969 Q202.8063,242.75 201.5094,242.75 Q199.9938,242.75 198.7906,242.125 Q197.8063,241.625 197.1188,240.5625 Q196.4313,239.4844 196.4313,238.2031 L196.4313,237.0469 Q196.4313,235.7188 197.0406,234.5781 Q197.6656,233.4219 198.7594,232.8125 Q199.8531,232.1875 201.0875,232.1875 Q201.8219,232.1875 202.4625,232.3594 Q203.1188,232.5156 203.6656,232.875 Z " fill="#000000"/><text fill="#000000" font-family="sans-serif" font-size="14" lengthAdjust="spacing" textLength="33" x="221.1" y="242.7285">Farm</text><line style="stroke:#181818;stroke-width:0.5;" x1="159" x2="284" y1="253" y2="253"/><text fill="#000000" font-family="sans-serif" font-size="14" lengthAdjust="spacing" textLength="42" x="164" y="271.5332">+id: int</text><text fill="#000000" font-family="sans-serif" font-size="14" lengthAdjust="spacing" textLength="83" x="164" y="289.1426">+farmerId: int</text><text fill="#000000" font-family="sans-serif" font-size="14" lengthAdjust="spacing" textLength="115" x="164" y="306.752">+farmName: string</text><text fill="#000000" font-family="sans-serif" font-size="14" lengthAdjust="spacing" textLength="100" x="164" y="324.3613">+location: string</text><text fill="#000000" font-family="sans-serif" font-size="14" lengthAdjust="spacing" textLength="89" x="164" y="341.9707">+areaHa: float</text><line style="stroke:#181818;stroke-width:0.5;" x1="159" x2="284" y1="349.0469" y2="349.0469"/></g><!--class Field--><g id="elem_Field"><rect codeLine="19" fill="#F1F1F1" height="136.0469" id="Field" rx="2.5" ry="2.5" style="stroke:#181818;stroke-width:0.5;" width="101" x="7" y="444"/><ellipse cx="39.1" cy="460" fill="#ADD1B2" rx="11" ry="11" style="stroke:#181818;stroke-width:1.0;"/><path d="M41.8656,455.875 Q42.0219,455.6563 42.2094,455.5469 Q42.3969,455.4375 42.6156,455.4375 Q42.9906,455.4375 43.225,455.7031 Q43.4594,455.9531 43.4594,456.5625 L43.4594,458.0156 Q43.4594,458.625 43.225,458.8906 Q42.9906,459.1563 42.6156,459.1563 Q42.2719,459.1563 42.0688,458.9531 Q41.8656,458.7656 41.7563,458.25 Q41.7094,457.8906 41.5219,457.7031 Q41.1938,457.3281 40.5844,457.1094 Q39.975,456.8906 39.35,456.8906 Q38.5844,456.8906 37.9438,457.2188 Q37.3188,457.5469 36.8188,458.2969 Q36.3344,459.0469 36.3344,460.0781 L36.3344,461.1719 Q36.3344,462.4063 37.225,463.2344 Q38.1156,464.0469 39.7094,464.0469 Q40.6469,464.0469 41.3031,463.7969 Q41.6938,463.6406 42.1156,463.2031 Q42.3813,462.9375 42.5219,462.8594 Q42.6781,462.7813 42.8813,462.7813 Q43.2094,462.7813 43.4594,463.0469 Q43.725,463.2969 43.725,463.6406 Q43.725,463.9844 43.3813,464.3906 Q42.8813,464.9688 42.0844,465.2969 Q41.0063,465.75 39.7094,465.75 Q38.1938,465.75 36.9906,465.125 Q36.0063,464.625 35.3188,463.5625 Q34.6313,462.4844 34.6313,461.2031 L34.6313,460.0469 Q34.6313,458.7188 35.2406,457.5781 Q35.8656,456.4219 36.9594,455.8125 Q38.0531,455.1875 39.2875,455.1875 Q40.0219,455.1875 40.6625,455.3594 Q41.3188,455.5156 41.8656,455.875 Z " fill="#000000"/><text fill="#000000" font-family="sans-serif" font-size="14" lengthAdjust="spacing" textLength="31" x="56.9" y="465.7285">Field</text><line style="stroke:#181818;stroke-width:0.5;" x1="8" x2="107" y1="476" y2="476"/><text fill="#000000" font-family="sans-serif" font-size="14" lengthAdjust="spacing" textLength="42" x="13" y="494.5332">+id: int</text><text fill="#000000" font-family="sans-serif" font-size="14" lengthAdjust="spacing" textLength="70" x="13" y="512.1426">+farmId: int</text><text fill="#000000" font-family="sans-serif" font-size="14" lengthAdjust="spacing" textLength="86" x="13" y="529.752">+name: string</text><text fill="#000000" font-family="sans-serif" font-size="14" lengthAdjust="spacing" textLength="79" x="13" y="547.3613">+crop: string</text><text fill="#000000" font-family="sans-serif" font-size="14" lengthAdjust="spacing" textLength="89" x="13" y="564.9707">+areaHa: float</text><line style="stroke:#181818;stroke-width:0.5;" x1="8" x2="107" y1="572.0469" y2="572.0469"/></g><!--class Inspection--><g id="elem_Inspection"><rect codeLine="27" fill="#F1F1F1" height="153.6563" id="Inspection" rx="2.5" ry="2.5" style="stroke:#181818;stroke-width:0.5;" width="157" x="143" y="435"/><ellipse cx="185.45" cy="451" fill="#ADD1B2" rx="11" ry="11" style="stroke:#181818;stroke-width:1.0;"/><path d="M188.2156,446.875 Q188.3719,446.6563 188.5594,446.5469 Q188.7469,446.4375 188.9656,446.4375 Q189.3406,446.4375 189.575,446.7031 Q189.8094,446.9531 189.8094,447.5625 L189.8094,449.0156 Q189.8094,449.625 189.575,449.8906 Q189.3406,450.1563 188.9656,450.1563 Q188.6219,450.1563 188.4188,449.9531 Q188.2156,449.7656 188.1063,449.25 Q188.0594,448.8906 187.8719,448.7031 Q187.5438,448.3281 186.9344,448.1094 Q186.325,447.8906 185.7,447.8906 Q184.9344,447.8906 184.2938,448.2188 Q183.6688,448.5469 183.1688,449.2969 Q182.6844,450.0469 182.6844,451.0781 L182.6844,452.1719 Q182.6844,453.4063 183.575,454.2344 Q184.4656,455.0469 186.0594,455.0469 Q186.9969,455.0469 187.6531,454.7969 Q188.0438,454.6406 188.4656,454.2031 Q188.7313,453.9375 188.8719,453.8594 Q189.0281,453.7813 189.2313,453.7813 Q189.5594,453.7813 189.8094,454.0469 Q190.075,454.2969 190.075,454.6406 Q190.075,454.9844 189.7313,455.3906 Q189.2313,455.9688 188.4344,456.2969 Q187.3563,456.75 186.0594,456.75 Q184.5438,456.75 183.3406,456.125 Q182.3563,455.625 181.6688,454.5625 Q180.9813,453.4844 180.9813,452.2031 L180.9813,451.0469 Q180.9813,449.7188 181.5906,448.5781 Q182.2156,447.4219 183.3094,446.8125 Q184.4031,446.1875 185.6375,446.1875 Q186.3719,446.1875 187.0125,446.3594 Q187.6688,446.5156 188.2156,446.875 Z " fill="#000000"/><text fill="#000000" font-family="sans-serif" font-size="14" lengthAdjust="spacing" textLength="64" x="205.55" y="456.7285">Inspection</text><line style="stroke:#181818;stroke-width:0.5;" x1="144" x2="299" y1="467" y2="467"/><text fill="#000000" font-family="sans-serif" font-size="14" lengthAdjust="spacing" textLength="42" x="149" y="485.5332">+id: int</text><text fill="#000000" font-family="sans-serif" font-size="14" lengthAdjust="spacing" textLength="70" x="149" y="503.1426">+farmId: int</text><text fill="#000000" font-family="sans-serif" font-size="14" lengthAdjust="spacing" textLength="98" x="149" y="520.752">+date: datetime</text><text fill="#000000" font-family="sans-serif" font-size="14" lengthAdjust="spacing" textLength="145" x="149" y="538.3613">+inspectorName: string</text><text fill="#000000" font-family="sans-serif" font-size="14" lengthAdjust="spacing" textLength="89" x="149" y="555.9707">+status: string</text><text fill="#000000" font-family="sans-serif" font-size="14" lengthAdjust="spacing" textLength="139" x="149" y="573.5801">+complianceScore: int</text><line style="stroke:#181818;stroke-width:0.5;" x1="144" x2="299" y1="580.6563" y2="580.6563"/></g><!--class Certificate--><g id="elem_Certificate"><rect codeLine="36" fill="#F1F1F1" height="153.6563" id="Certificate" rx="2.5" ry="2.5" style="stroke:#181818;stroke-width:0.5;" width="141" x="335" y="435"/><ellipse cx="370.25" cy="451" fill="#ADD1B2" rx="11" ry="11" style="stroke:#181818;stroke-width:1.0;"/><path d="M373.0156,446.875 Q373.1719,446.6563 373.3594,446.5469 Q373.5469,446.4375 373.7656,446.4375 Q374.1406,446.4375 374.375,446.7031 Q374.6094,446.9531 374.6094,447.5625 L374.6094,449.0156 Q374.6094,449.625 374.375,449.8906 Q374.1406,450.1563 373.7656,450.1563 Q373.4219,450.1563 373.2188,449.9531 Q373.0156,449.7656 372.9063,449.25 Q372.8594,448.8906 372.6719,448.7031 Q372.3438,448.3281 371.7344,448.1094 Q371.125,447.8906 370.5,447.8906 Q369.7344,447.8906 369.0938,448.2188 Q368.4688,448.5469 367.9688,449.2969 Q367.4844,450.0469 367.4844,451.0781 L367.4844,452.1719 Q367.4844,453.4063 368.375,454.2344 Q369.2656,455.0469 370.8594,455.0469 Q371.7969,455.0469 372.4531,454.7969 Q372.8438,454.6406 373.2656,454.2031 Q373.5313,453.9375 373.6719,453.8594 Q373.8281,453.7813 374.0313,453.7813 Q374.3594,453.7813 374.6094,454.0469 Q374.875,454.2969 374.875,454.6406 Q374.875,454.9844 374.5313,455.3906 Q374.0313,455.9688 373.2344,456.2969 Q372.1563,456.75 370.8594,456.75 Q369.3438,456.75 368.1406,456.125 Q367.1563,455.625 366.4688,454.5625 Q365.7813,453.4844 365.7813,452.2031 L365.7813,451.0469 Q365.7813,449.7188 366.3906,448.5781 Q367.0156,447.4219 368.1094,446.8125 Q369.2031,446.1875 370.4375,446.1875 Q371.1719,446.1875 371.8125,446.3594 Q372.4688,446.5156 373.0156,446.875 Z " fill="#000000"/><text fill="#000000" font-family="sans-serif" font-size="14" lengthAdjust="spacing" textLength="64" x="388.75" y="456.7285">Certificate</text><line style="stroke:#181818;stroke-width:0.5;" x1="336" x2="475" y1="467" y2="467"/><text fill="#000000" font-family="sans-serif" font-size="14" lengthAdjust="spacing" textLength="42" x="341" y="485.5332">+id: int</text><text fill="#000000" font-family="sans-serif" font-size="14" lengthAdjust="spacing" textLength="70" x="341" y="503.1426">+farmId: int</text><text fill="#000000" font-family="sans-serif" font-size="14" lengthAdjust="spacing" textLength="129" x="341" y="520.752">+certificateNo: string</text><text fill="#000000" font-family="sans-serif" font-size="14" lengthAdjust="spacing" textLength="107" x="341" y="538.3613">+issueDate: date</text><text fill="#000000" font-family="sans-serif" font-size="14" lengthAdjust="spacing" textLength="111" x="341" y="555.9707">+expiryDate: date</text><text fill="#000000" font-family="sans-serif" font-size="14" lengthAdjust="spacing" textLength="88" x="341" y="573.5801">+pdfUrl: string</text><line style="stroke:#181818;stroke-width:0.5;" x1="336" x2="475" y1="580.6563" y2="580.6563"/></g><!--link Farmer to Farm--><g id="link_Farmer_Farm"><path codeLine="45" d="M221.5,143.08 C221.5,167.95 221.5,196.13 221.5,220.99 " fill="none" id="Farmer-Farm" style="stroke:#181818;stroke-width:1.0;"/><text fill="#000000" font-family="sans-serif" font-size="13" lengthAdjust="spacing" textLength="30" x="222.5" y="187.4951">owns</text><text fill="#000000" font-family="sans-serif" font-size="13" lengthAdjust="spacing" textLength="7" x="214.1391" y="164.4366">1</text><text fill="#000000" font-family="sans-serif" font-size="13" lengthAdjust="spacing" textLength="20" x="200.4063" y="210.1882">1..*</text></g><!--link Farm to Field--><g id="link_Farm_Field"><path codeLine="46" d="M171.63,357.21 C151.27,384.64 127.78,416.3 107.42,443.73 " fill="none" id="Farm-Field" style="stroke:#181818;stroke-width:1.0;"/><text fill="#000000" font-family="sans-serif" font-size="13" lengthAdjust="spacing" textLength="49" x="150.5" y="401.4951">contains</text><text fill="#000000" font-family="sans-serif" font-size="13" lengthAdjust="spacing" textLength="7" x="159.1262" y="378.58">1</text><text fill="#000000" font-family="sans-serif" font-size="13" lengthAdjust="spacing" textLength="20" x="91.5368" y="433.3755">1..*</text></g><!--link Farm to Inspection--><g id="link_Farm_Inspection"><path codeLine="47" d="M221.5,357.21 C221.5,381.72 221.5,409.6 221.5,434.83 " fill="none" id="Farm-Inspection" style="stroke:#181818;stroke-width:1.0;"/><text fill="#000000" font-family="sans-serif" font-size="13" lengthAdjust="spacing" textLength="60" x="222.5" y="401.4951">undergoes</text><text fill="#000000" font-family="sans-serif" font-size="13" lengthAdjust="spacing" textLength="7" x="214.1391" y="378.58">1</text><text fill="#000000" font-family="sans-serif" font-size="13" lengthAdjust="spacing" textLength="20" x="200.5469" y="424.2405">0..*</text></g><!--link Farm to Certificate--><g id="link_Farm_Certificate"><path codeLine="48" d="M277.46,357.21 C297.86,381.72 321.08,409.6 342.09,434.83 " fill="none" id="Farm-Certificate" style="stroke:#181818;stroke-width:1.0;"/><text fill="#000000" font-family="sans-serif" font-size="13" lengthAdjust="spacing" textLength="21" x="314.5" y="401.4951">has</text><text fill="#000000" font-family="sans-serif" font-size="13" lengthAdjust="spacing" textLength="7" x="275.8699" y="378.58">1</text><text fill="#000000" font-family="sans-serif" font-size="13" lengthAdjust="spacing" textLength="20" x="315.0931" y="424.2405">0..*</text></g><!--SRC=[ZLB9JiD03BtdAwmUGQtATMu8XCYbbueFC1EdjPXDCuwW8FwTP8B291ILoopFptxUqWkxW14jQ8CftOf4Vkw4QktTdjy9jbMLBV20qLA4ZmhWcXi5x6HuEhIa8FLkxZ3ymz6x6K0MsPI0zfsJquHybWA_mhTPjPu3kuMcyHg5lIinZ8IFgA0r7gKGOJBDMPNwxvfqzE4ViMkN0kaXaKi23KelC9p2bZ9tzFLnMLiIb2xD-sU3ONIQzjf76eDEITnH56wvRmXToaB_K7U-LE2KEhgVSinJV0iSJtCiDErJDEKWltTaTRE2zRg_DfkhrJXN1VxLfKnOclD45FGB9yXBpZPpYiugw5n3yU3fBBCiNy4HK_K5]--></g></svg>