<?xml version="1.0" encoding="us-ascii" standalone="no"?><svg xmlns="http://www.w3.org/2000/svg" xmlns:xlink="http://www.w3.org/1999/xlink" contentStyleType="text/css" height="683px" preserveAspectRatio="none" style="width:1338px;height:683px;background:#FFFFFF;" version="1.1" viewBox="0 0 1338 683" width="1338px" zoomAndPan="magnify"><defs/><g><rect fill="#FFFFFF" height="468.7578" style="stroke:#181818;stroke-width:1.0;" width="10" x="334.5" y="114.9609"/><rect fill="#FFFFFF" height="372.7031" style="stroke:#181818;stroke-width:1.0;" width="10" x="599.5" y="145.3125"/><rect fill="#FFFFFF" height="104.0547" style="stroke:#181818;stroke-width:1.0;" width="10" x="937.5" y="261.7188"/><rect fill="#FFFFFF" height="30.3516" style="stroke:#181818;stroke-width:1.0;" width="10" x="1170.5" y="175.6641"/><rect fill="#FFFFFF" height="30.3516" style="stroke:#181818;stroke-width:1.0;" width="10" x="1170.5" y="396.125"/><rect fill="none" height="290" style="stroke:#000000;stroke-width:1.5;" width="1043" x="288.5" y="221.0156"/><line style="stroke:#181818;stroke-width:0.5;stroke-dasharray:5.0,5.0;" x1="43" x2="43" y1="82.6094" y2="601.7188"/><line style="stroke:#181818;stroke-width:0.5;stroke-dasharray:5.0,5.0;" x1="339.5" x2="339.5" y1="82.6094" y2="601.7188"/><line style="stroke:#181818;stroke-width:0.5;stroke-dasharray:5.0,5.0;" x1="604" x2="604" y1="82.6094" y2="601.7188"/><line style="stroke:#181818;stroke-width:0.5;stroke-dasharray:5.0,5.0;" x1="942" x2="942" y1="82.6094" y2="601.7188"/><line style="stroke:#181818;stroke-width:0.5;stroke-dasharray:5.0,5.0;" x1="1175.5" x2="1175.5" y1="82.6094" y2="601.7188"/><line style="stroke:#181818;stroke-width:0.5;stroke-dasharray:5.0,5.0;" x1="1280.5" x2="1280.5" y1="82.6094" y2="601.7188"/><text fill="#000000" font-family="sans-serif" font-size="14" lengthAdjust="spacing" textLength="71" x="5" y="79.5332">Agronomist</text><ellipse cx="43.5" cy="13.5" fill="#E2E2F0" rx="8" ry="8" style="stroke:#181818;stroke-width:0.5;"/><path d="M43.5,21.5 L43.5,48.5 M30.5,29.5 L56.5,29.5 M43.5,48.5 L30.5,63.5 M43.5,48.5 L56.5,63.5 " fill="none" style="stroke:#181818;stroke-width:0.5;"/><text fill="#000000" font-family="sans-serif" font-size="14" lengthAdjust="spacing" textLength="71" x="5" y="615.252">Agronomist</text><ellipse cx="43.5" cy="626.8281" fill="#E2E2F0" rx="8" ry="8" style="stroke:#181818;stroke-width:0.5;"/><path d="M43.5,634.8281 L43.5,661.8281 M30.5,642.8281 L56.5,642.8281 M43.5,661.8281 L30.5,676.8281 M43.5,661.8281 L56.5,676.8281 " fill="none" style="stroke:#181818;stroke-width:0.5;"/><rect fill="#E2E2F0" height="31.6094" rx="2.5" ry="2.5" style="stroke:#181818;stroke-width:0.5;" width="82" x="298.5" y="50"/><text fill="#000000" font-family="sans-serif" font-size="14" lengthAdjust="spacing" textLength="68" x="305.5" y="71.5332">React SPA</text><rect fill="#E2E2F0" height="31.6094" rx="2.5" ry="2.5" style="stroke:#181818;stroke-width:0.5;" width="82" x="298.5" y="600.7188"/><text fill="#000000" font-family="sans-serif" font-size="14" lengthAdjust="spacing" textLength="68" x="305.5" y="622.252">React SPA</text><rect fill="#E2E2F0" height="31.6094" rx="2.5" ry="2.5" style="stroke:#181818;stroke-width:0.5;" width="89" x="560" y="50"/><text fill="#000000" font-family="sans-serif" font-size="14" lengthAdjust="spacing" textLength="75" x="567" y="71.5332">Express API</text><rect fill="#E2E2F0" height="31.6094" rx="2.5" ry="2.5" style="stroke:#181818;stroke-width:0.5;" width="89" x="560" y="600.7188"/><text fill="#000000" font-family="sans-serif" font-size="14" lengthAdjust="spacing" textLength="75" x="567" y="622.252">Express API</text><rect fill="#E2E2F0" height="31.6094" rx="2.5" ry="2.5" style="stroke:#181818;stroke-width:0.5;" width="113" x="886" y="50"/><text fill="#000000" font-family="sans-serif" font-size="14" lengthAdjust="spacing" textLength="99" x="893" y="71.5332">pdfGenerator.js</text><rect fill="#E2E2F0" height="31.6094" rx="2.5" ry="2.5" style="stroke:#181818;stroke-width:0.5;" width="113" x="886" y="600.7188"/><text fill="#000000" font-family="sans-serif" font-size="14" lengthAdjust="spacing" textLength="99" x="893" y="622.252">pdfGenerator.js</text><text fill="#000000" font-family="sans-serif" font-size="14" lengthAdjust="spacing" textLength="104" x="1120.5" y="79.5332">In-Memory Store</text><path d="M1157.5,29 C1157.5,19 1175.5,19 1175.5,19 C1175.5,19 1193.5,19 1193.5,29 L1193.5,55 C1193.5,65 1175.5,65 1175.5,65 C1175.5,65 1157.5,65 1157.5,55 L1157.5,29 " fill="#E2E2F0" style="stroke:#181818;stroke-width:1.5;"/><path d="M1157.5,29 C1157.5,39 1175.5,39 1175.5,39 C1175.5,39 1193.5,39 1193.5,29 " fill="none" style="stroke:#181818;stroke-width:1.5;"/><text fill="#000000" font-family="sans-serif" font-size="14" lengthAdjust="spacing" textLength="104" x="1120.5" y="615.252">In-Memory Store</text><path d="M1157.5,628.3281 C1157.5,618.3281 1175.5,618.3281 1175.5,618.3281 C1175.5,618.3281 1193.5,618.3281 1193.5,628.3281 L1193.5,654.3281 C1193.5,664.3281 1175.5,664.3281 1175.5,664.3281 C1175.5,664.3281 1157.5,664.3281 1157.5,654.3281 L1157.5,628.3281 " fill="#E2E2F0" style="stroke:#181818;stroke-width:1.5;"/><path d="M1157.5,628.3281 C1157.5,638.3281 1175.5,638.3281 1175.5,638.3281 C1175.5,638.3281 1193.5,638.3281 1193.5,628.3281 " fill="none" style="stroke:#181818;stroke-width:1.5;"/><rect fill="#E2E2F0" height="31.6094" rx="2.5" ry="2.5" style="stroke:#181818;stroke-width:0.5;" width="81" x="1240.5" y="50"/><text fill="#000000" font-family="sans-serif" font-size="14" lengthAdjust="spacing" textLength="67" x="1247.5" y="71.5332">Filesystem</text><rect fill="#E2E2F0" height="31.6094" rx="2.5" ry="2.5" style="stroke:#181818;stroke-width:0.5;" width="81" x="1240.5" y="600.7188"/><text fill="#000000" font-family="sans-serif" font-size="14" lengthAdjust="spacing" textLength="67" x="1247.5" y="622.252">Filesystem</text><rect fill="#FFFFFF" height="468.7578" style="stroke:#181818;stroke-width:1.0;" width="10" x="334.5" y="114.9609"/><rect fill="#FFFFFF" height="372.7031" style="stroke:#181818;stroke-width:1.0;" width="10" x="599.5" y="145.3125"/><rect fill="#FFFFFF" height="104.0547" style="stroke:#181818;stroke-width:1.0;" width="10" x="937.5" y="261.7188"/><rect fill="#FFFFFF" height="30.3516" style="stroke:#181818;stroke-width:1.0;" width="10" x="1170.5" y="175.6641"/><rect fill="#FFFFFF" height="30.3516" style="stroke:#181818;stroke-width:1.0;" width="10" x="1170.5" y="396.125"/><polygon fill="#181818" points="322.5,110.9609,332.5,114.9609,322.5,118.9609,326.5,114.9609" style="stroke:#181818;stroke-width:1.0;"/><line style="stroke:#181818;stroke-width:1.0;" x1="43.5" x2="328.5" y1="114.9609" y2="114.9609"/><text fill="#000000" font-family="sans-serif" font-size="13" lengthAdjust="spacing" textLength="195" x="50.5" y="110.1045">Clicks "Approve" for an inspection</text><polygon fill="#181818" points="587.5,141.3125,597.5,145.3125,587.5,149.3125,591.5,145.3125" style="stroke:#181818;stroke-width:1.0;"/><line style="stroke:#181818;stroke-width:1.0;" x1="344.5" x2="593.5" y1="145.3125" y2="145.3125"/><text fill="#000000" font-family="sans-serif" font-size="13" lengthAdjust="spacing" textLength="196" x="351.5" y="140.4561">POST /api/inspections/:id/approve</text><polygon fill="#181818" points="1158.5,171.6641,1168.5,175.6641,1158.5,179.6641,1162.5,175.6641" style="stroke:#181818;stroke-width:1.0;"/><line style="stroke:#181818;stroke-width:1.0;" x1="609.5" x2="1164.5" y1="175.6641" y2="175.6641"/><text fill="#000000" font-family="sans-serif" font-size="13" lengthAdjust="spacing" textLength="122" x="616.5" y="170.8076">Find Inspection by ID</text><polygon fill="#181818" points="620.5,202.0156,610.5,206.0156,620.5,210.0156,616.5,206.0156" style="stroke:#181818;stroke-width:1.0;"/><line style="stroke:#181818;stroke-width:1.0;stroke-dasharray:2.0,2.0;" x1="614.5" x2="1174.5" y1="206.0156" y2="206.0156"/><text fill="#000000" font-family="sans-serif" font-size="13" lengthAdjust="spacing" textLength="130" x="626.5" y="201.1592">Return Inspection data</text><path d="M288.5,221.0156 L349.5,221.0156 L349.5,229.3672 L339.5,239.3672 L288.5,239.3672 L288.5,221.0156 " fill="#EEEEEE" style="stroke:#000000;stroke-width:1.5;"/><rect fill="none" height="290" style="stroke:#000000;stroke-width:1.5;" width="1043" x="288.5" y="221.0156"/><text fill="#000000" font-family="sans-serif" font-size="13" font-weight="bold" lengthAdjust="spacing" textLength="16" x="303.5" y="235.5107">alt</text><text fill="#000000" font-family="sans-serif" font-size="11" font-weight="bold" lengthAdjust="spacing" textLength="204" x="364.5" y="234.4346">[if inspection.complianceScore &gt;= 80]</text><polygon fill="#181818" points="925.5,257.7188,935.5,261.7188,925.5,265.7188,929.5,261.7188" style="stroke:#181818;stroke-width:1.0;"/><line style="stroke:#181818;stroke-width:1.0;" x1="609.5" x2="931.5" y1="261.7188" y2="261.7188"/><text fill="#000000" font-family="sans-serif" font-size="13" lengthAdjust="spacing" textLength="309" x="616.5" y="256.8623">generateCertificate(farm, farmer, inspection, certData)</text><line style="stroke:#181818;stroke-width:1.0;" x1="947.5" x2="989.5" y1="292.0703" y2="292.0703"/><line style="stroke:#181818;stroke-width:1.0;" x1="989.5" x2="989.5" y1="292.0703" y2="305.0703"/><line style="stroke:#181818;stroke-width:1.0;" x1="948.5" x2="989.5" y1="305.0703" y2="305.0703"/><polygon fill="#181818" points="958.5,301.0703,948.5,305.0703,958.5,309.0703,954.5,305.0703" style="stroke:#181818;stroke-width:1.0;"/><text fill="#000000" font-family="sans-serif" font-size="13" lengthAdjust="spacing" textLength="209" x="954.5" y="287.2139">Construct PDF document with pdfkit</text><polygon fill="#181818" points="1269,331.4219,1279,335.4219,1269,339.4219,1273,335.4219" style="stroke:#181818;stroke-width:1.0;"/><line style="stroke:#181818;stroke-width:1.0;" x1="947.5" x2="1275" y1="335.4219" y2="335.4219"/><text fill="#000000" font-family="sans-serif" font-size="13" lengthAdjust="spacing" textLength="182" x="954.5" y="330.5654">Save PDF to /public/certificates</text><polygon fill="#181818" points="620.5,361.7734,610.5,365.7734,620.5,369.7734,616.5,365.7734" style="stroke:#181818;stroke-width:1.0;"/><line style="stroke:#181818;stroke-width:1.0;stroke-dasharray:2.0,2.0;" x1="614.5" x2="941.5" y1="365.7734" y2="365.7734"/><text fill="#000000" font-family="sans-serif" font-size="13" lengthAdjust="spacing" textLength="135" x="626.5" y="360.917">Return public PDF URL</text><polygon fill="#181818" points="1158.5,392.125,1168.5,396.125,1158.5,400.125,1162.5,396.125" style="stroke:#181818;stroke-width:1.0;"/><line style="stroke:#181818;stroke-width:1.0;" x1="609.5" x2="1164.5" y1="396.125" y2="396.125"/><text fill="#000000" font-family="sans-serif" font-size="13" lengthAdjust="spacing" textLength="231" x="616.5" y="391.2686">Create new Certificate record with pdfUrl</text><polygon fill="#181818" points="620.5,422.4766,610.5,426.4766,620.5,430.4766,616.5,426.4766" style="stroke:#181818;stroke-width:1.0;"/><line style="stroke:#181818;stroke-width:1.0;stroke-dasharray:2.0,2.0;" x1="614.5" x2="1174.5" y1="426.4766" y2="426.4766"/><text fill="#000000" font-family="sans-serif" font-size="13" lengthAdjust="spacing" textLength="94" x="626.5" y="421.6201">Confirm creation</text><polygon fill="#181818" points="355.5,452.8281,345.5,456.8281,355.5,460.8281,351.5,456.8281" style="stroke:#181818;stroke-width:1.0;"/><line style="stroke:#181818;stroke-width:1.0;stroke-dasharray:2.0,2.0;" x1="349.5" x2="598.5" y1="456.8281" y2="456.8281"/><text fill="#000000" font-family="sans-serif" font-size="13" lengthAdjust="spacing" textLength="223" x="361.5" y="451.9717">201 Created (with new Certificate data)</text><line style="stroke:#000000;stroke-width:1.0;stroke-dasharray:2.0,2.0;" x1="288.5" x2="1331.5" y1="465.8281" y2="465.8281"/><text fill="#000000" font-family="sans-serif" font-size="11" font-weight="bold" lengthAdjust="spacing" textLength="32" x="293.5" y="477.2471">[else]</text><polygon fill="#181818" points="355.5,499.0156,345.5,503.0156,355.5,507.0156,351.5,503.0156" style="stroke:#181818;stroke-width:1.0;"/><line style="stroke:#181818;stroke-width:1.0;stroke-dasharray:2.0,2.0;" x1="349.5" x2="598.5" y1="503.0156" y2="503.0156"/><text fill="#000000" font-family="sans-serif" font-size="13" lengthAdjust="spacing" textLength="231" x="361.5" y="498.1592">400 Bad Request (e.g., "Score too low")</text><line style="stroke:#181818;stroke-width:1.0;" x1="344.5" x2="386.5" y1="540.3672" y2="540.3672"/><line style="stroke:#181818;stroke-width:1.0;" x1="386.5" x2="386.5" y1="540.3672" y2="553.3672"/><line style="stroke:#181818;stroke-width:1.0;" x1="345.5" x2="386.5" y1="553.3672" y2="553.3672"/><polygon fill="#181818" points="355.5,549.3672,345.5,553.3672,355.5,557.3672,351.5,553.3672" style="stroke:#181818;stroke-width:1.0;"/><text fill="#000000" font-family="sans-serif" font-size="13" lengthAdjust="spacing" textLength="219" x="351.5" y="535.5107">Update state with new Certificate data</text><polygon fill="#181818" points="54.5,579.7188,44.5,583.7188,54.5,587.7188,50.5,583.7188" style="stroke:#181818;stroke-width:1.0;"/><line style="stroke:#181818;stroke-width:1.0;stroke-dasharray:2.0,2.0;" x1="48.5" x2="338.5" y1="583.7188" y2="583.7188"/><text fill="#000000" font-family="sans-serif" font-size="13" lengthAdjust="spacing" textLength="267" x="60.5" y="578.8623">UI updates to show "Download Certificate" link</text><!--SRC=[VLFRZjem47tFLupoH2LkhVfGHUfA54g5rAg8B1zWx0dhajYkxK3v-uuDcnYMDW-MxSmvFdDcXd6lBSpsLYlTIESpmwoNN1gcFEGRPDn3kPxbm1miASYZ4hSnN_yOYyx1RBsAKLyOFxm9CgBwXWejezV6lrmCN2-M9TgZv9W9vjcEEOHyfKO_iD7s32M5OWoCkophHSBegHDJmBoM_E0WdnbZzP4W5MN454Zb378ljSee2tba7liKijTTuBfABc3zito62JDoqeFTf922xY9vp_IQPdRT19uej82bfEEg8u3T6LQB7db99wumIb_Ve6-jIf71bqpW7JHZjGTP9GcEkMvCBPdYMFB0-_GPFaqpe2-HrnjUmFvI3PmZLQcIdBQ3Yjbc2655EqpOXy0fQa5QtaNAJavImN3V7-zVcvEDthRKItGBGlEsGMgBa_GlGArnaFu1mLBMwCxEOrD0oOxnEV0Q9gRTKSadl9Vkti0V-7g1HPRjvdj49DOckTpxTYtht688L7Y2n3MmI8wBBfUjhMzDkjGiN3qeEHbJITi03zoXK-zKNGj-8-Yc-JzCtr-52HX43VVwHAmRrZHTOVaFryVfbFu8ykjtYpHb0nplnqF8BotbjOPQdtBY2csVYEn68PsfddPhH8XoFgp_b9Y02TtFEk5Nq4OA5whlNlG9yeK-gLgJreGcXrggGogic_Q_]--></g></svg>